<?xml version="1.0" encoding="UTF-8" standalone="no"?>
<svg viewBox="0 0 200 150" xmlns="http://www.w3.org/2000/svg">
<defs>
<filter id="filter6318">
<feGaussianBlur stdDeviation="6.9257"/>
</filter>
<filter id="filter6002">
<feGaussianBlur stdDeviation="2.539"/>
</filter>
<filter id="filter6094">
<feGaussianBlur stdDeviation="6.7902"/>
</filter>
<filter id="filter6215">
<feGaussianBlur stdDeviation=".7894"/>
</filter>
<filter id="filter4396">
<feGaussianBlur stdDeviation="6.7201"/>
</filter>
<filter height="1.2363" id="filter6229" width="1.34109" x="-.17055" y="-.11815">
<feGaussianBlur stdDeviation="4.1272"/>
</filter>
<filter height="1.30331" id="filter6124" width="1.27084" x="-.13542" y="-.15165">
<feGaussianBlur stdDeviation="12.1241"/>
</filter>
<filter height="1.28358" id="filter6207" width="1.4122" x="-.2061" y="-.14179">
<feGaussianBlur stdDeviation="3.4176"/>
</filter>
<filter height="1.54532" id="filter6304" width="1.69011" x="-.34506" y="-.27266">
<feGaussianBlur stdDeviation="5.2606"/>
</filter>
<filter height="1.16277" id="filter6330" width="1.23404" x="-.11702" y="-.08138">
<feGaussianBlur stdDeviation="1.0893"/>
</filter>
<linearGradient gradientUnits="userSpaceOnUse" id="linearGradient6349" x1="991.57203" x2="1549.58467" y1="2372.86925" y2="2401.39012">
<stop offset="0" stop-color="#5a0100"/>
<stop offset="1" stop-color="#fff" stop-opacity=".8831"/>
</linearGradient>
</defs>
<g fill="#666" filter="url(#filter4396)" transform="matrix(.47372,0,0,.47372,-94.45467,-202.48082)">
<path d="m308.97529,477.30403c-1.61428.16949-3.00329,1.60017-3.125,3.21875l-9.3125,121.09375c-.8646-.92242-2.25351-1.31574-3.47337-.98363s-2.21771,1.37523-2.49538,2.60863l-7.84375,35.03125-4.57011-64.48065c-.078-1.64903-1.47571-3.13535-3.11684-3.31439s-3.32647.97096-3.75816,2.56439l-9.58614,41.0744-66.65625.6875c-1.84557-.004-3.52382,1.68609-3.50735,3.53159s1.72464,3.50513 3.56985,3.46841l69.28125-.71875c1.50673-.0123 2.94009-1.11079 3.34375-2.5625l5.5-19.5625 4.82011,68.48065c.10297,1.6626 1.54921,3.13719 3.2095,3.27242s3.32609-1.0859 3.69675-2.70992l8.89864-47.3869c.48048,2.93225 1.2139,7.67236 4.64094,7.55851 1.65224-.10467 3.11877-1.53446 3.26531-3.18351l7.93882-94.78797 14.74868,193.07097c.12735,1.68203 1.63236,3.14832 3.31713,3.2318s3.32737-1.22685 3.62037-2.88805l9.59375-56.68925 .0312-.15625 11.34375-37.84375c.0665-.23436.1085-.47569.125-.71875l.42735-29.76539 6.23651,47.58725c.20311,1.4664 1.43401,2.73067 2.89445,2.97292s3.03362-.55688 3.6993-1.87917l9.71114-24.97811 235.3125.71875c1.84814.033 3.55465-1.63577 3.56289-3.48419s-1.68333-3.53238-3.53169-3.51581l-237.5-.71875c-1.29039.003-2.54886.78286-3.125,1.9375l-6.375,12.75-8.4164-57.18671c-.27145-1.65815-1.88529-2.98606-3.56468-2.93311s-3.20637,1.4799-3.37282,3.15186l-2.8961,54.37421-11.3125,37.90625c-.0381.12315-.0694.2484-.0937.375l-4.84375,26.78125-16.4375-211.78125c-.13945-1.86906-2.01207-3.42455-3.875-3.21875z" fill="#666" filter="url(#filter4396)"/>
<path d="m308.97529,477.30403c-1.61428.16949-3.00329,1.60017-3.125,3.21875l-9.3125,121.09375c-.8646-.92242-2.25351-1.31574-3.47337-.98363s-2.21771,1.37523-2.49538,2.60863l-7.84375,35.03125-4.57011-64.48065c-.078-1.64903-1.47571-3.13535-3.11684-3.31439s-3.32647.97096-3.75816,2.56439l-9.58614,41.0744-66.65625.6875c-1.84557-.004-3.52382,1.68609-3.50735,3.53159s1.72464,3.50513 3.56985,3.46841l69.28125-.71875c1.50673-.0123 2.94009-1.11079 3.34375-2.5625l5.5-19.5625 4.82011,68.48065c.10297,1.6626 1.54921,3.13719 3.2095,3.27242s3.32609-1.0859 3.69675-2.70992l8.89864-47.3869c.48048,2.93225 1.2139,7.67236 4.64094,7.55851 1.65224-.10467 3.11877-1.53446 3.26531-3.18351l7.93882-94.78797 14.74868,193.07097c.12735,1.68203 1.63236,3.14832 3.31713,3.2318s3.32737-1.22685 3.62037-2.88805l9.59375-56.68925 .0312-.15625 11.34375-37.84375c.0665-.23436.1085-.47569.125-.71875l.42735-29.76539 6.23651,47.58725c.20311,1.4664 1.43401,2.73067 2.89445,2.97292s3.03362-.55688 3.6993-1.87917l9.71114-24.97811 235.3125.71875c1.84814.033 3.55465-1.63577 3.56289-3.48419s-1.68333-3.53238-3.53169-3.51581l-237.5-.71875c-1.29039.003-2.54886.78286-3.125,1.9375l-6.375,12.75-8.4164-57.18671c-.27145-1.65815-1.88529-2.98606-3.56468-2.93311s-3.20637,1.4799-3.37282,3.15186l-2.8961,54.37421-11.3125,37.90625c-.0381.12315-.0694.2484-.0937.375l-4.84375,26.78125-16.4375-211.78125c-.13945-1.86906-2.01207-3.42455-3.875-3.21875z" fill="#666"/>
</g>
<g transform="matrix(.4508,0,0,.4508,-111.84994,-241.4713)">
<path d="m428.96368,584.35261c-6.31582,3.09282-10.2139-22.83816-43.68026-25.31233-13.70414-1.01315-24.26037,5.99072-35.37836,15.87201s-22.51675,26.46483-27.60923,41.54426-6.23825,27.1416-3.56301,44.32459 9.0116,28.41439 23.89446,55.37618 70.05932,101.4129 70.05932,101.4129 20.02476-33.66931 32.20244-48.19699c24.08862-28.57172 59.88374-49.90912 78.8526-72.71245 8.69212-10.65313 13.02143-26.29939 14.62876-41.0404 1.73616-15.92247-1.1051-34.36238-5.76909-47.67567-5.40489-15.42821-16.59447-28.96502-28.94848-37.35415-9.42926-6.40305-21.03362-9.36239-31.83302-8.10977-15.46522,1.79379-31.61567,14.71763-42.85613,21.87182z" fill="#808080" filter="url(#filter6318)" transform="matrix(1.15419,0,.28856,.94371,-284.25691,46.95432)"/>
<path d="m454.15654,577.91153c-7.74119,3.17824-12.51899-23.46892-53.53808-26.01142-16.7969-1.04113-29.73548,6.15618-43.36259,16.31037s-27.59835,27.19575-33.84011,42.69164-7.64611,27.89121-4.36711,45.54877 11.04535,29.19914 29.28698,56.90557 85.8704,104.21376 85.8704,104.21376 24.54397-34.5992 39.46992-49.52811c29.52497-29.36082 73.39837-51.28753 96.64814-74.72065 10.65377-10.94735 15.96012-27.02573 17.9302-42.17387 2.12798-16.36222-1.3545-35.31141-7.07107-48.99239-6.62467-15.85431-20.33952-29.76498-35.4816-38.38581-11.55727-6.57989-25.78051-9.62096-39.01714-8.33375-18.95542,1.84333-38.75072,15.12411-52.52794,22.47589z" fill="#5a0100"/>
<path d="m394.875,558.28125c-12.08995.71152-22.20216,6.46563-33.78125,15.09375-12.55484,9.35518-26.1395,26.00878-31.75,39.9375-5.92181,14.70157-7.0904,25.15853-3.96875,41.96875 3.03878,16.364 10.09256,26.81031 28.34375,54.53125 8.60965,13.07682 30.13981,39.33908 49.28125,61.875 16.3684,19.27112 26.89415,31.14512 30.8125,35.59375 6.08314-8.47911 22.12835-30.56323 35.34375-43.78125a6.4182,6.4182 0 0,1 0-.0312c30.64507-30.4747 74.77591-52.6976 96.59375-74.6875 9.18006-9.46535 14.27358-24.20178 16.125-38.4375 1.93102-14.8478-1.33367-33.13024-6.59375-45.71875-5.92269-14.1743-18.76683-27.30243-32.78125-35.28125-10.33354-5.88318-23.36348-8.68109-35.1875-7.53125-16.42994,1.59774-35.77014,14.08998-50.125,21.75a6.4182,6.4182 0 0,1 -.59375.28125c-2.53147,1.03932-5.77306.77462-7.90625-.1875s-3.52997-2.23868-4.84375-3.5c-2.62757-2.52265-5.00232-5.3835-8.28125-8.34375-6.55787-5.9205-16.19998-12.31341-35.34375-13.5-1.88042-.11655-3.65131-.13085-5.34375-.0312z" fill="#ab0400" filter="url(#filter6002)" opacity=".84"/>
<path d="m399.15625,569.53125c-8.67823.51074-16.40875,4.57057-27.34375,12.71875-10.54002,7.85385-23.31132,23.79295-27.75,34.8125-5.32859,13.22885-6.16678,20.11036-3.34375,35.3125 2.58984,13.94644 8.29345,22.40818 26.5625,50.15625 7.65256,11.62314 29.38434,38.26327 48.4375,60.6875 11.07898,13.03918 14.14697,16.43119 20.84375,24.09375 8.20192-10.85755 18.56348-23.93668 27.65625-33.03125a18.41334,18.41334 0 0,1 .0625-.0312c32.67819-32.49651 77.23864-55.2376 96.4375-74.5l.0312-.0312c6.48333-6.68398 11.173-19.04998 12.8125-31.65625 1.56292-12.01745-1.40556-28.98449-5.8125-39.53125-4.61867-11.0535-15.66505-22.69518-27.5625-29.46875-8.03408-4.57403-18.97509-6.92408-28.15625-6.03125-11.70999,1.13874-30.22183,12.17016-45.65625,20.40625a18.41334,18.41334 0 0,1 -1.65625.78125c-5.45413,2.23926-13.06445,1.61452-17.40625-.34375s-6.48375-4.11552-8.21875-5.78125c-3.47001-3.33145-5.40314-5.74928-8-8.09375-5.19372-4.68893-11.44002-9.40912-28.03125-10.4375-1.47077-.0912-2.76603-.0983-3.90625-.0312z" fill="url(#linearGradient6349)" filter="url(#filter6094)" opacity=".672" transform="translate(6.42857,6.42857)"/>
<path d="m563.48129,663.71714c-9.55949,20.19217-39.26724,43.01006-51.40139,43.01006s27.48424-31.06077 27.48424-40.61467c4.31491-22.36523 19.26646-39.36875 24.33379-42.92357 5.30852-3.72403 5.36427,28.31736-.41664,40.52818z" fill="#fff" filter="url(#filter6229)"/>
<path d="m396.15625,580.3125c-5.90607.34758-11.45755,2.98748-21.875,10.75-8.27891,6.16899-21.37957,22.83074-24.46875,30.5-5.07564,12.60084-5.44799,15.15871-2.75,29.6875 2.24333,12.0805 6.80472,18.62784 25.09375,46.40625 6.70135,10.17838 28.72337,37.42837 47.65625,59.71875 6.80556,8.01244 8.89804,10.29771 12.8125,14.78125 6.00084-7.72793 12.58811-15.66877 19.84375-23.0625a14.47055,14.47055 0 0,1 1.125-1.28125c34.14768-33.95784 79.9123-57.97854 96.3125-74.375 .36389-.37504.37962-.3925.0312-.0312l.0312-.0312c3.7859-3.9513 8.62815-15.08641 10.03125-25.875 1.18103-9.081-1.59645-26.04875-5.0625-34.34375-3.30983-7.92116-13.5084-19.0567-23.34375-24.65625-5.86002-3.33628-15.45447-5.36743-22.125-4.71875-6.13164.59627-26.35378,10.96759-41.875,19.25l-.09365-.15635a14.47055,14.47055 0 0,1 -2.53125,1.375c-8.52492,3.49998-18.27704,2.71851-25.34375-.46875-5.65509-2.55058-9.41724-6.07792-11.09375-7.6875-3.7357-3.58652-5.90963-6.21349-7.75-7.875-4.90848-4.43142-6.91001-6.94355-21.9375-7.875-1.14075-.0707-2.03675-.0696-2.6875-.0312z" fill="#f81000" filter="url(#filter6124)" opacity=".8047" transform="translate(12.85714,-10)"/>
<path d="m563.48129,663.71714c-5.89187,13.03868-20.69581,27.65292-32.82996,27.65292s8.91281-15.70363 8.91281-25.25753c4.31491-22.36523 18.19503-28.65446 23.26236-32.20928 5.30852-3.72403 4.74809,20.75543.65479,29.81389z" fill="#fff" filter="url(#filter6207)"/>
<path d="m562.3125,638.9375c-2.60258,1.67159-5.51623,3.55643-8.59375,6.75-4.1787,4.33628-8.2901,10.70491-10.3125,21.1875-.21727,3.48795-1.81767,6.45897-3.625,9.3125-1.9393,3.0619-4.25403,5.99602-6.0625,8.46875-.98867,1.35181-1.08573,1.68334-1.59375,2.59375 4.31654-.53891 9.71851-3.33692 14.6875-7.75 5.52327-4.90535 10.42828-11.50757 13.09375-17.40625 1.43353-3.17239 2.72373-10.74472 2.84375-16.875 .0505-2.57753-.17843-4.62419-.4375-6.28125z" fill="#fff" filter="url(#filter6215)"/>
<path d="m427.84835,577.89404c-3.36006.0502-6.26881,1.04473-9.03125,2.84375s-5.87962,4.91856-6.0625,9.8125c-.10505,2.81111 1.31146,5.68194 2.78125,7.25s2.8279,2.33909 3.9375,2.9375c2.21921,1.19681 3.5956,2.13254 3.03125,1.53125 .79958.85191 4.52947,7.42158 7.25,12.40625 1.36027,2.49233 2.22957,4.45342 4.4375,6.78125 .55198.58196 1.20086,1.271 2.59375,1.96875s5.66677,26.39882 8.13896,25.22124 2.07865-28.21773 2.54854-29.40879 .59652-2.03584.6875-2.875c.90265-8.3253 1.45807-12.57778 1.03125-16.84375s-2.27276-7.52629-4.25-10.84375c-3.24521-5.44483-8.71623-10.90632-17.09375-10.7812z" fill="#fff" filter="url(#filter6304)" opacity=".8438"/>
<path d="m430.59783,585.12602c4.3655-.0652 8.62387,3.57323 10.85914,7.32361 3.98391,6.68429 4.07625,6.60034 2.27285,23.23351-.78586,7.24816-8.23409-12.69524-13.38453-18.18275-2.33084-2.48339-7.95587-3.16248-7.82868-6.56599 .12388-3.31504 4.76424-5.75887 8.08122-5.80838z" fill="#fff" filter="url(#filter6330)"/>
<g transform="translate(69.22562,117.55829)">
<path d="m308.97529,477.30403c-1.61428.16949-3.00329,1.60017-3.125,3.21875l-9.3125,121.09375c-.8646-.92242-2.25351-1.31574-3.47337-.98363s-2.21771,1.37523-2.49538,2.60863l-7.84375,35.03125-4.57011-64.48065c-.078-1.64903-1.47571-3.13535-3.11684-3.31439s-3.32647.97096-3.75816,2.56439l-9.58614,41.0744-66.65625.6875c-1.84557-.004-3.52382,1.68609-3.50735,3.53159s1.72464,3.50513 3.56985,3.46841l69.28125-.71875c1.50673-.0123 2.94009-1.11079 3.34375-2.5625l5.5-19.5625 4.82011,68.48065c.10297,1.6626 1.54921,3.13719 3.2095,3.27242s3.32609-1.0859 3.69675-2.70992l8.89864-47.3869c.48048,2.93225 1.2139,7.67236 4.64094,7.55851 1.65224-.10467 3.11877-1.53446 3.26531-3.18351l7.93882-94.78797 14.74868,193.07097c.12735,1.68203 1.63236,3.14832 3.31713,3.2318s3.32737-1.22685 3.62037-2.88805l9.59375-56.68925 .0312-.15625 11.34375-37.84375c.0665-.23436.1085-.47569.125-.71875l.42735-29.76539 6.23651,47.58725c.20311,1.4664 1.43401,2.73067 2.89445,2.97292s3.03362-.55688 3.6993-1.87917l9.71114-24.97811 235.3125.71875c1.84814.033 3.55465-1.63577 3.56289-3.48419s-1.68333-3.53238-3.53169-3.51581l-237.5-.71875c-1.29039.003-2.54886.78286-3.125,1.9375l-6.375,12.75-8.4164-57.18671c-.27145-1.65815-1.88529-2.98606-3.56468-2.93311s-3.20637,1.4799-3.37282,3.15186l-2.8961,54.37421-11.3125,37.90625c-.0381.12315-.0694.2484-.0937.375l-4.84375,26.78125-16.4375-211.78125c-.13945-1.86906-2.01207-3.42455-3.875-3.21875z" filter="url(#filter4396)" stroke="#000" stroke-linejoin="round" stroke-width="2"/>
<path d="m308.97529,477.30403c-1.61428.16949-3.00329,1.60017-3.125,3.21875l-9.3125,121.09375c-.8646-.92242-2.25351-1.31574-3.47337-.98363s-2.21771,1.37523-2.49538,2.60863l-7.84375,35.03125-4.57011-64.48065c-.078-1.64903-1.47571-3.13535-3.11684-3.31439s-3.32647.97096-3.75816,2.56439l-9.58614,41.0744-66.65625.6875c-1.84557-.004-3.52382,1.68609-3.50735,3.53159s1.72464,3.50513 3.56985,3.46841l69.28125-.71875c1.50673-.0123 2.94009-1.11079 3.34375-2.5625l5.5-19.5625 4.82011,68.48065c.10297,1.6626 1.54921,3.13719 3.2095,3.27242s3.32609-1.0859 3.69675-2.70992l8.89864-47.3869c.48048,2.93225 1.2139,7.67236 4.64094,7.55851 1.65224-.10467 3.11877-1.53446 3.26531-3.18351l7.93882-94.78797 14.74868,193.07097c.12735,1.68203 1.63236,3.14832 3.31713,3.2318s3.32737-1.22685 3.62037-2.88805l9.59375-56.68925 .0312-.15625 11.34375-37.84375c.0665-.23436.1085-.47569.125-.71875l.42735-29.76539 6.23651,47.58725c.20311,1.4664 1.43401,2.73067 2.89445,2.97292s3.03362-.55688 3.6993-1.87917l9.71114-24.97811 235.3125.71875c1.84814.033 3.55465-1.63577 3.56289-3.48419s-1.68333-3.53238-3.53169-3.51581l-237.5-.71875c-1.29039.003-2.54886.78286-3.125,1.9375l-6.375,12.75-8.4164-57.18671c-.27145-1.65815-1.88529-2.98606-3.56468-2.93311s-3.20637,1.4799-3.37282,3.15186l-2.8961,54.37421-11.3125,37.90625c-.0381.12315-.0694.2484-.0937.375l-4.84375,26.78125-16.4375-211.78125c-.13945-1.86906-2.01207-3.42455-3.875-3.21875z" fill="#fff" stroke="#000" stroke-linejoin="round" stroke-width="3.5"/>
</g>
</g>
</svg>
