<?xml version="1.0" encoding="utf-8"?>
<!-- Generator: Adobe Illustrator 15.0.0, SVG Export Plug-In . SVG Version: 6.00 Build 0)  -->
<!DOCTYPE svg PUBLIC "-//W3C//DTD SVG 1.1//EN" "http://www.w3.org/Graphics/SVG/1.1/DTD/svg11.dtd">
<svg version="1.1" id="Ebene_1" xmlns="http://www.w3.org/2000/svg" xmlns:xlink="http://www.w3.org/1999/xlink" x="0px" y="0px"
	 width="1190.549px" height="854px" viewBox="0 82.625 1190.549 854" enable-background="new 0 82.625 1190.549 854"
	 xml:space="preserve">
<filter  width="1.23404" height="1.16277" id="filter6330" x="-.11702" y="-.08138">
	<feGaussianBlur  stdDeviation="1.0893"></feGaussianBlur>
</filter>
<filter  id="filter6318">
	<feGaussianBlur  stdDeviation="6.9257"></feGaussianBlur>
</filter>
<filter  width="1.69011" height="1.54532" id="filter6304" x="-.34506" y="-.27266">
	<feGaussianBlur  stdDeviation="5.2606"></feGaussianBlur>
</filter>
<filter  width="1.34109" height="1.2363" id="filter6229" x="-.17055" y="-.11815">
	<feGaussianBlur  stdDeviation="4.1272"></feGaussianBlur>
</filter>
<filter  id="filter6215">
	<feGaussianBlur  stdDeviation=".7894"></feGaussianBlur>
</filter>
<filter  width="1.4122" height="1.28358" id="filter6207" x="-.2061" y="-.14179">
	<feGaussianBlur  stdDeviation="3.4176"></feGaussianBlur>
</filter>
<filter  width="1.27084" height="1.30331" id="filter6124" x="-.13542" y="-.15165">
	<feGaussianBlur  stdDeviation="12.1241"></feGaussianBlur>
</filter>
<filter  id="filter6094">
	<feGaussianBlur  stdDeviation="6.7902"></feGaussianBlur>
</filter>
<filter  id="filter6002">
	<feGaussianBlur  stdDeviation="2.539"></feGaussianBlur>
</filter>
<filter  id="filter4396">
	<feGaussianBlur  stdDeviation="6.7201"></feGaussianBlur>
</filter>
<g transform="matrix(.47372,0,0,.47372,-94.45467,-202.48082)" filter="url(#filter4396)">
	<g>
		
			<image overflow="visible" width="1431" height="843" xlink:href="8EA01BEE.png"  transform="matrix(2.111 0 0 2.111 -93.4749 722.9324)">
		</image>
	</g>
	<path fill="#666666" d="M857.323,871.399c-9.611,1.008-17.879,9.526-18.603,19.159l-55.435,720.842
		c-5.145-5.492-13.414-7.833-20.675-5.856c-7.263,1.977-13.202,8.186-14.855,15.529l-46.692,208.533l-27.205-383.839
		c-0.464-9.815-8.784-18.663-18.553-19.728c-9.769-1.066-19.8,5.78-22.371,15.265L575.87,1685.81l-396.789,4.092
		c-10.986-0.025-20.976,10.037-20.879,21.023c0.099,10.986,10.268,20.864,21.252,20.646l412.413-4.278
		c8.969-0.074,17.502-6.613,19.906-15.255l32.74-116.451l28.692,407.649c0.614,9.897,9.223,18.675,19.106,19.481
		c9.883,0.804,19.8-6.465,22.006-16.133l52.972-282.082c2.859,17.455,7.225,45.672,27.626,44.994
		c9.835-0.623,18.566-9.135,19.438-18.949l47.257-564.249l87.796,1149.302c0.757,10.012,9.716,18.741,19.745,19.238
		c10.029,0.499,19.807-7.302,21.551-17.19l57.109-337.458l0.188-0.93l67.526-225.274c0.396-1.396,0.645-2.833,0.744-4.28
		l2.544-177.186l37.125,283.276c1.208,8.728,8.535,16.255,17.23,17.696c8.693,1.443,18.059-3.315,22.021-11.186l57.808-148.688
		l1400.757,4.278c11,0.198,21.159-9.736,21.208-20.74c0.049-11.002-10.023-21.027-21.023-20.928l-1413.78-4.278
		c-7.681,0.017-15.172,4.659-18.603,11.532l-37.948,75.899l-50.102-340.42c-1.614-9.87-11.221-17.774-21.219-17.459
		c-9.996,0.315-19.087,8.809-20.077,18.761l-17.24,323.677l-67.34,225.645c-0.227,0.734-0.414,1.48-0.559,2.233l-28.834,159.422
		L880.389,890.558C879.558,879.432,868.412,870.174,857.323,871.399L857.323,871.399z"/>
</g>
<g transform="matrix(.4508,0,0,.4508,-111.84994,-241.4713)">
	<g filter="url(#filter6318)">
		<path fill="#808080" d="M1035.919,1063.809c-38.081,17.374-109.406-128.296-343.591-142.197
			c-95.895-5.691-156.393,33.656-215.806,89.164c-59.415,55.509-109.246,148.67-118.331,233.383
			c-9.085,84.711,3.761,152.472,51.657,249c47.897,96.53,110.723,159.623,259.292,311.085
			c148.566,151.462,655.549,569.703,655.549,569.703s79.747-189.143,138.46-270.754
			c116.424-160.507,325.709-280.374,416.866-408.475c41.419-59.846,44.288-147.741,30.012-230.552
			c-15.424-89.448-66.618-193.036-121.533-267.827c-63.637-86.671-163.767-162.716-263.058-209.842
			c-75.783-35.971-160.596-52.595-232.642-45.559C1189.621,951.017,1100.858,1023.62,1035.919,1063.809z"/>
	</g>
	<path fill="#5A0100" d="M1480.513,941.764c-46.081,18.918-74.522-139.704-318.7-154.84
		c-99.987-6.198-177.007,36.647-258.126,97.091c-81.119,60.446-164.285,161.891-201.441,254.134
		c-37.156,92.243-45.516,166.029-25.998,271.139c19.52,105.113,65.751,173.816,174.339,338.747
		c108.587,164.928,511.166,620.358,511.166,620.358s146.103-205.96,234.952-294.83c175.755-174.776,436.923-305.302,575.323-444.793
		c63.42-65.166,95.009-160.877,106.733-251.051c12.668-97.398-8.063-210.199-42.091-291.639
		c-39.435-94.376-121.074-177.183-211.213-228.5c-68.797-39.168-153.464-57.272-232.261-49.61
		c-112.833,10.974-230.672,90.031-312.685,133.794H1480.513z"/>
	<g opacity="0.84" filter="url(#filter6002)" enable-background="new    ">
		<path fill="#AB0400" d="M1127.624,824.91c-71.968,4.235-132.165,38.489-201.092,89.849
			c-74.735,55.689-155.602,154.825-189,237.737c-35.25,87.516-42.206,149.762-23.623,249.829
			c18.089,97.411,60.078,159.595,168.721,324.612c51.252,77.843,179.414,234.176,293.359,368.327
			c97.438,114.714,160.095,185.397,183.42,211.88c36.212-50.474,131.725-181.936,210.391-260.619c0-0.063,0-0.124,0-0.187
			c182.423-181.407,445.125-313.696,575.002-444.596c54.647-56.345,84.966-144.067,95.988-228.808
			c11.494-88.387-7.942-197.217-39.253-272.153c-35.254-84.377-111.715-162.523-195.139-210.021
			c-61.514-35.02-139.076-51.675-209.463-44.831c-97.804,9.512-212.929,83.874-298.381,129.472c-1.148,0.62-2.329,1.178-3.533,1.675
			c-15.069,6.187-34.366,4.612-47.065-1.116c-12.699-5.728-21.013-13.327-28.833-20.835c-15.641-15.017-29.778-32.046-49.296-49.669
			c-39.036-35.241-96.434-73.299-210.392-80.361C1148.239,824.401,1137.698,824.317,1127.624,824.91L1127.624,824.91z"/>
	</g>
	<g opacity="0.672" filter="url(#filter6094)" enable-background="new    ">
		
			<linearGradient id="SVGID_1_" gradientUnits="userSpaceOnUse" x1="752.0562" y1="4311.2236" x2="986.5831" y2="4299.2363" gradientTransform="matrix(2.6835 0 0 -2.6835 -1195.0067 13114.9082)">
			<stop  offset="0" style="stop-color:#5A0100"/>
			<stop  offset="1" style="stop-color:#FFFFFF;stop-opacity:0.8831"/>
		</linearGradient>
		<path fill="url(#SVGID_1_)" d="M1191.376,930.146c-51.659,3.039-97.676,27.206-162.771,75.709
			c-62.742,46.753-138.766,141.634-165.188,207.231c-31.719,78.747-36.71,119.711-19.904,210.206
			c15.415,83.021,49.368,133.391,158.12,298.569c45.553,69.189,174.917,227.77,288.335,361.257
			c65.95,77.62,84.214,97.81,124.078,143.423c48.824-64.631,110.502-142.488,164.63-196.625c0.126-0.063,0.247-0.125,0.373-0.186
			c194.524-193.443,459.782-328.816,574.066-443.48l0.186-0.184c38.595-39.788,66.51-113.401,76.271-188.443
			c9.302-71.537-8.366-172.536-34.6-235.32c-27.495-65.799-93.25-135.098-164.075-175.419
			c-47.823-27.228-112.95-41.218-167.606-35.904c-69.707,6.781-179.902,72.447-271.778,121.475c-3.21,1.713-6.499,3.264-9.861,4.651
			c-32.467,13.329-77.771,9.61-103.615-2.047c-25.846-11.657-38.597-24.499-48.926-34.414
			c-20.656-19.833-32.163-34.225-47.622-48.18c-30.917-27.913-68.099-56.01-166.863-62.131
			C1205.875,929.789,1198.163,929.748,1191.376,930.146L1191.376,930.146z"/>
	</g>
	<g filter="url(#filter6229)">
		<path fill="#FFFFFF" d="M2131.293,1452.542c-56.904,120.198-233.747,256.029-305.98,256.029
			c-72.228,0,163.611-184.897,163.611-241.769c25.684-133.135,114.688-234.353,144.851-255.513
			c31.602-22.17,31.931,168.565-2.478,241.253H2131.293z"/>
	</g>
	<g opacity="0.8047" filter="url(#filter6124)" enable-background="new    ">
		<path fill="#F81000" d="M1211.787,896.528c-35.159,2.071-68.206,17.785-130.218,63.992
			c-49.281,36.723-127.267,135.906-145.657,181.559c-30.213,75.01-32.429,90.237-16.368,176.724
			c13.353,71.912,40.505,110.886,149.376,276.245c39.892,60.589,170.983,222.801,283.686,355.49
			c40.512,47.695,52.968,61.299,76.269,87.988c35.722-46.001,74.934-93.272,118.125-137.284c2.08-2.671,4.315-5.219,6.696-7.627
			c203.275-202.143,475.698-345.131,573.324-442.735c2.166-2.233,2.261-2.337,0.186-0.186l0.186-0.184
			c22.534-23.521,51.363-89.806,59.711-154.027c7.032-54.058-9.501-155.063-30.133-204.441
			c-19.704-47.151-80.413-113.44-138.963-146.772c-34.881-19.86-91.994-31.95-131.702-28.09
			c-36.502,3.551-156.878,65.288-249.271,114.592l-0.559-0.932c-4.74,3.223-9.787,5.964-15.069,8.184
			c-50.747,20.835-108.799,16.182-150.866-2.79c-33.662-15.181-56.057-36.179-66.037-45.76
			c-22.239-21.351-35.178-36.987-46.133-46.879c-29.219-26.379-41.134-41.333-130.588-46.878c-6.791-0.42-12.125-0.414-16-0.184
			L1211.787,896.528z"/>
	</g>
	<g filter="url(#filter6207)">
		<path fill="#FFFFFF" d="M2131.293,1452.542c-35.072,77.616-123.197,164.612-195.425,164.612
			c-72.233,0,53.052-93.48,53.052-150.351c25.688-133.135,108.314-170.573,138.478-191.734
			C2158.995,1252.899,2155.659,1398.621,2131.293,1452.542z"/>
	</g>
	<g filter="url(#filter6215)">
		<path fill="#FFFFFF" d="M2124.339,1305.036c-15.493,9.95-32.837,21.171-51.159,40.182
			c-24.873,25.811-49.348,63.724-61.388,126.124c-1.291,20.762-10.818,38.449-21.576,55.435
			c-11.546,18.225-25.324,35.692-36.09,50.412c-5.884,8.048-6.464,10.021-9.488,15.439c25.696-3.208,57.853-19.863,87.431-46.133
			c32.88-29.199,62.077-68.502,77.948-103.616c8.531-18.884,16.212-63.96,16.927-100.451
			C2127.242,1327.084,2125.881,1314.901,2124.339,1305.036z"/>
	</g>
	<g opacity="0.8438" filter="url(#filter6304)" enable-background="new    ">
		<path fill="#FFFFFF" d="M1323.905,941.66c-20.001,0.299-37.316,6.217-53.761,16.927c-16.444,10.71-34.999,29.28-36.088,58.412
			c-0.626,16.732,7.807,33.822,16.557,43.157s16.834,13.925,23.439,17.486c13.21,7.125,21.403,12.694,18.043,9.116
			c4.759,5.071,26.964,44.179,43.157,73.851c8.098,14.837,13.273,26.511,26.416,40.367c3.286,3.464,7.149,7.567,15.441,11.719
			c8.29,4.153,33.731,157.145,48.449,150.137c14.716-7.01,12.374-167.974,15.171-175.064c2.797-7.09,3.551-12.118,4.092-17.114
			c5.372-49.558,8.68-74.871,6.139-100.267c-2.541-25.396-13.531-44.803-25.3-64.551
			C1406.343,973.427,1373.775,940.915,1323.905,941.66z"/>
	</g>
	<g filter="url(#filter6330)">
		<path fill="#FFFFFF" d="M1340.274,984.709c25.987-0.388,51.334,21.273,64.64,43.596c23.716,39.791,24.267,39.29,13.531,138.305
			c-4.677,43.146-49.017-75.573-79.674-108.239c-13.875-14.783-47.359-18.825-46.603-39.084
			c0.739-19.735,28.361-34.281,48.107-34.576V984.709z"/>
	</g>
	<g transform="translate(69.22562,117.55829)">
		<g filter="url(#filter4396)">
			<path d="M959.142,925.11c-9.61,1.007-17.878,9.525-18.602,19.161l-55.435,720.841c-5.147-5.491-13.416-7.833-20.677-5.855
				c-7.261,1.976-13.201,8.187-14.854,15.528l-46.69,208.531l-27.206-383.836c-0.464-9.818-8.784-18.665-18.552-19.73
				c-9.77-1.066-19.802,5.78-22.371,15.266l-57.064,244.505l-396.788,4.094c-10.987-0.026-20.976,10.036-20.879,21.022
				c0.098,10.985,10.266,20.866,21.251,20.647l412.413-4.279c8.968-0.073,17.501-6.612,19.904-15.255l32.739-116.451l28.695,407.65
				c0.613,9.896,9.222,18.674,19.104,19.479c9.883,0.804,19.8-6.464,22.005-16.132l52.972-282.081
				c2.859,17.454,7.225,45.672,27.627,44.994c9.835-0.624,18.565-9.135,19.436-18.951l47.26-564.249l87.793,1149.302
				c0.758,10.013,9.718,18.74,19.748,19.239c10.028,0.496,19.806-7.305,21.55-17.192l57.11-337.458l0.184-0.929l67.527-225.274
				c0.396-1.395,0.646-2.833,0.743-4.278l2.545-177.187l37.124,283.275c1.209,8.73,8.537,16.256,17.231,17.697
				c8.693,1.443,18.058-3.314,22.02-11.185l57.807-148.69l1400.757,4.278c11,0.197,21.16-9.735,21.208-20.74
				c0.048-11.003-10.021-21.026-21.021-20.928l-1413.779-4.279c-7.682,0.017-15.173,4.66-18.602,11.533l-37.949,75.898
				l-50.102-340.419c-1.616-9.87-11.221-17.774-21.219-17.46c-9.997,0.316-19.087,8.81-20.077,18.764l-17.239,323.674
				l-67.341,225.647c-0.227,0.734-0.414,1.479-0.557,2.233l-28.835,159.421l-97.847-1260.68
				C981.379,933.145,970.231,923.884,959.142,925.11L959.142,925.11z"/>
			<path fill="none" stroke="#000000" stroke-width="2" stroke-linejoin="round" d="M959.142,925.11
				c-9.61,1.007-17.878,9.525-18.602,19.161l-55.435,720.841c-5.147-5.491-13.416-7.833-20.677-5.855
				c-7.261,1.976-13.201,8.187-14.854,15.528l-46.69,208.531l-27.206-383.836c-0.464-9.818-8.784-18.665-18.552-19.73
				c-9.77-1.066-19.802,5.78-22.371,15.266l-57.064,244.505l-396.788,4.094c-10.987-0.026-20.976,10.036-20.879,21.022
				c0.098,10.985,10.266,20.866,21.251,20.647l412.413-4.279c8.968-0.073,17.501-6.612,19.904-15.255l32.739-116.451l28.695,407.65
				c0.613,9.896,9.222,18.674,19.104,19.479c9.883,0.804,19.8-6.464,22.005-16.132l52.972-282.081
				c2.859,17.454,7.225,45.672,27.627,44.994c9.835-0.624,18.565-9.135,19.436-18.951l47.26-564.249l87.793,1149.302
				c0.758,10.013,9.718,18.74,19.748,19.239c10.028,0.496,19.806-7.305,21.55-17.192l57.11-337.458l0.184-0.929l67.527-225.274
				c0.396-1.395,0.646-2.833,0.743-4.278l2.545-177.187l37.124,283.275c1.209,8.73,8.537,16.256,17.231,17.697
				c8.693,1.443,18.058-3.314,22.02-11.185l57.807-148.69l1400.757,4.278c11,0.197,21.16-9.735,21.208-20.74
				c0.048-11.003-10.021-21.026-21.021-20.928l-1413.779-4.279c-7.682,0.017-15.173,4.66-18.602,11.533l-37.949,75.898
				l-50.102-340.419c-1.616-9.87-11.221-17.774-21.219-17.46c-9.997,0.316-19.087,8.81-20.077,18.764l-17.239,323.674
				l-67.341,225.647c-0.227,0.734-0.414,1.479-0.557,2.233l-28.835,159.421l-97.847-1260.68
				C981.379,933.145,970.231,923.884,959.142,925.11L959.142,925.11z"/>
		</g>
		<path fill="#FFFFFF" stroke="#000000" stroke-width="3.5" stroke-linejoin="round" d="M959.142,925.11
			c-9.61,1.007-17.878,9.525-18.602,19.161l-55.435,720.841c-5.147-5.491-13.416-7.833-20.677-5.855
			c-7.261,1.976-13.201,8.187-14.854,15.528l-46.69,208.531l-27.206-383.836c-0.464-9.818-8.784-18.665-18.552-19.73
			c-9.77-1.066-19.802,5.78-22.371,15.266l-57.064,244.505l-396.788,4.094c-10.987-0.026-20.976,10.036-20.879,21.022
			c0.098,10.985,10.266,20.866,21.251,20.647l412.413-4.279c8.968-0.073,17.501-6.612,19.904-15.255l32.739-116.451l28.695,407.65
			c0.613,9.896,9.222,18.674,19.104,19.479c9.883,0.804,19.8-6.464,22.005-16.132l52.972-282.081
			c2.859,17.454,7.225,45.672,27.627,44.994c9.835-0.624,18.565-9.135,19.436-18.951l47.26-564.249l87.793,1149.302
			c0.758,10.013,9.718,18.74,19.748,19.239c10.028,0.496,19.806-7.305,21.55-17.192l57.11-337.458l0.184-0.929l67.527-225.274
			c0.396-1.395,0.646-2.833,0.743-4.278l2.545-177.187l37.124,283.275c1.209,8.73,8.537,16.256,17.231,17.697
			c8.693,1.443,18.058-3.314,22.02-11.185l57.807-148.69l1400.757,4.278c11,0.197,21.16-9.735,21.208-20.74
			c0.048-11.003-10.021-21.026-21.021-20.928l-1413.779-4.279c-7.682,0.017-15.173,4.66-18.602,11.533l-37.949,75.898
			l-50.102-340.419c-1.616-9.87-11.221-17.774-21.219-17.46c-9.997,0.316-19.087,8.81-20.077,18.764l-17.239,323.674
			l-67.341,225.647c-0.227,0.734-0.414,1.479-0.557,2.233l-28.835,159.421l-97.847-1260.68
			C981.379,933.145,970.231,923.884,959.142,925.11L959.142,925.11z"/>
	</g>
</g>
<g>
	
		<radialGradient id="SVGID_2_" cx="65.0198" cy="2028.7255" r="2.5012" gradientTransform="matrix(53.3235 0 0 -21.6943 -2434.5522 44883.1602)" gradientUnits="userSpaceOnUse">
		<stop  offset="0" style="stop-color:#000000"/>
		<stop  offset="1" style="stop-color:#000000;stop-opacity:0"/>
	</radialGradient>
	<path opacity="0.5604" fill="url(#SVGID_2_)" enable-background="new    " d="M1165.915,871.341
		c0,29.968-59.711,54.261-133.367,54.261c-73.658,0-133.369-24.293-133.369-54.261s59.711-54.259,133.369-54.259
		C1106.204,817.082,1165.915,841.373,1165.915,871.341z"/>
	
		<linearGradient id="SVGID_3_" gradientUnits="userSpaceOnUse" x1="29.2751" y1="1995.8319" x2="29.2751" y2="1991.8885" gradientTransform="matrix(24.8031 0 0 -24.8031 303.1454 50193.2344)">
		<stop  offset="0" style="stop-color:#93B9DD"/>
		<stop  offset="1" style="stop-color:#6396CD"/>
	</linearGradient>
	<path fill="url(#SVGID_3_)" stroke="#387AB8" stroke-linejoin="round" d="M1029.81,671.621
		c-57.5,2.329-103.289,46.797-110.385,103.088h62.035c6.176-22.926,28.324-40.773,52.729-40.506
		c13.803,0.152,27.127,4.671,37.039,14.232l-25.727,23.719h93.602v-92.322l-24.633,24.631c-21.65-21.275-46.684-32.49-78.639-32.842
		C1033.8,671.599,1031.814,671.539,1029.81,671.621z"/>
	
		<linearGradient id="SVGID_4_" gradientUnits="userSpaceOnUse" x1="29.2751" y1="1988.2821" x2="29.2751" y2="1992.2247" gradientTransform="matrix(24.8031 0 0 -24.8031 303.1454 50193.2344)">
		<stop  offset="0" style="stop-color:#D7E866"/>
		<stop  offset="1" style="stop-color:#8CAB2A"/>
	</linearGradient>
	<path fill="url(#SVGID_4_)" stroke="#42770C" stroke-linejoin="round" d="M1028.716,896.388
		c57.5-2.327,103.289-46.796,110.387-103.088h-62.037c-6.176,22.926-28.322,40.774-52.729,40.505
		c-13.803-0.15-27.125-4.669-37.039-14.231l25.727-23.72h-93.6v92.323l24.631-24.632c21.65,21.276,46.686,32.491,78.639,32.843
		C1024.726,896.41,1026.71,896.469,1028.716,896.388z"/>
</g>
</svg>
